PathFileType	4	(X/Y/Z)	9_coords_data.trc
DataRate	CameraRate	NumFrames	NumMarkers	Units	OrigDataRate	OrigDataStartFrame	OrigNumFrames
30.0	30.0	9	21	m	30.0	1	59
Frame#	Time	THUMB_TIP	THUMB_IP	THUMB_MCP	THUMB_CMC	INDEX_TIP	INDEX_DIP	INDEX_PIP	INDEX_MCP	MIDDLE_TIP	MIDDLE_DIP	MIDDLE_PIP	MIDDLE_MCP	RING_TIP	RING_DIP	RING_PIP	RING_MCP	PINKY_TIP	PINKY_DIP	PINKY_PIP	PINKY_MCP	WRIST
X1	Y1	Z1	X2	Y2	Z2	X3	Y3	Z3	X4	Y4	Z4	X5	Y5	Z5	X6	Y6	Z6	X7	Y7	Z7	X8	Y8	Z8	X9	Y9	Z9	X10	Y10	Z10	X11	Y11	Z11	X12	Y12	Z12	X13	Y13	Z13	X14	Y14	Z14	X15	Y15	Z15	X16	Y16	Z16	X17	Y17	Z17	X18	Y18	Z18	X19	Y19	Z19	X20	Y20	Z20	X21	Y21	Z21
0	-2.749317978547796e-18	0.542603358852735	-0.01821352602438031	-0.13440145396197092	0.5197085881426275	-0.02016931597497007	-0.13446748274945908	0.49345649583761864	-0.017615375039341186	-0.11794098780023851	0.4760929410074711	-0.02170146241388715	-0.07705454929517869	0.5516995114324243	0.0596669152035586	-0.16963766055265755	0.5422422341423578	0.0508923802183221	-0.15692674233044981	0.527443667559824	0.04080336805334639	-0.1392851977938372	0.5047614756727946	0.025805155505743693	-0.10651008703007447	0.5229811649278937	-0.022946987923917583	-0.1169189413458607	0.5372360276832422	-0.013121291848590122	-0.1222344455045904	0.5474162959395807	0.014020057506295092	-0.11921470322667066	0.5163388136498411	0.025378041536697094	-0.08919247455696566	0.5344110886411533	-0.018090771281908058	-0.10607930325146292	0.5495559859255746	-0.008336934606663737	-0.10678269244457389	0.5607909077638262	0.011260145963903234	-0.09629885042940162	0.5286056140190918	0.016905878920614015	-0.07248806715907075	0.6036634690433104	0.013403976631367165	-0.06953965347494084	0.5877941723597772	0.009184840446617715	-0.06470598896190954	0.5677622583791394	0.005060784303628663	-0.059959769181726075	0.5322223318860511	-0.001002633878086634	-0.06097566081941208	0.4622830810018609	-0.023011742144276925	-0.051989820119430985
1	0.03333333333333339	0.5431842335887138	-0.018761474848154935	-0.13340472173997128	0.5203145082582296	-0.02089767814853205	-0.13404682669063403	0.49394616657490303	-0.017877439413552798	-0.11778617741531061	0.4759165016796949	-0.020869430916817477	-0.0770938050267303	0.5514188692320261	0.06022125548994128	-0.16960159518006665	0.5419312642712161	0.051210923415761056	-0.15707964373388184	0.527311201515012	0.04118000951495593	-0.13925706355257003	0.5044874240943353	0.025724870143987943	-0.10679400847028653	0.5234568492901184	-0.02191783439289008	-0.11660002096900138	0.5374222927919455	-0.011877573720925905	-0.12227096034764784	0.5473864380166237	0.015370251365268262	-0.1194994286387017	0.5162793532891183	0.02552977127498135	-0.0890809908753985	0.5341552464731745	-0.017906198832526532	-0.10644068270132315	0.5493371509041786	-0.008200620264479874	-0.10699882471491201	0.5603229449098045	0.011634052085546132	-0.09669940328295443	0.5282429346674159	0.017360474708057128	-0.07276612392561094	0.603487341024627	0.014150492682018512	-0.06980377739257299	0.5875970221460451	0.010045937514935543	-0.06494061043909949	0.5674929767174672	0.006099576761739001	-0.06035088133910793	0.5320775406790761	-0.0006671143964330772	-0.06126861331552508	0.4622830810018609	-0.023011742144276925	-0.051989820119430985
2	0.06666666666666676	0.543552534424314	-0.019084939086940977	-0.13262160820063487	0.5207135576847794	-0.02136536777481257	-0.13370824820106514	0.4942652484351349	-0.01801334775578911	-0.11764366293946457	0.47576939051548567	-0.020241864171576585	-0.07711186117343505	0.5512030882341599	0.06063651491498301	-0.1695643485002101	0.5416917306476652	0.051451797094508755	-0.1571879582582981	0.527204897012115	0.04146317694533774	-0.13923332231847835	0.5042755892650895	0.02566212403182777	-0.10701206121549453	0.5238555988080907	-0.02115488780492425	-0.11633900843342174	0.5375599364210704	-0.010917541098671935	-0.12228777830671989	0.5473562403974451	0.0164083838575253	-0.11969243561436843	0.5162295286821503	0.025645847815400802	-0.08900131314516102	0.5339826658816793	-0.017765449306053838	-0.10671283550879596	0.5491859446074672	-0.008086471436467124	-0.10713438430319555	0.5599753321659416	0.011933486090593526	-0.09698695134073035	0.5279631706181751	0.017707390422307734	-0.07297436347919584	0.6033462133647723	0.014688887434224251	-0.06998070724935773	0.587440400168137	0.01067338086412517	-0.06509390732105808	0.5672822703035513	0.006865345642680043	-0.060626168842283	0.5319667336833439	-0.0004122998110994702	-0.06148185621269586	0.4622830810018609	-0.023011742144276925	-0.051989820119430985
3	0.10000000000000014	0.5437825309071826	-0.019264656790930923	-0.1320518874595421	0.5209724772512931	-0.021655599682147586	-0.1334607324852216	0.4944717693750006	-0.018087550633613003	-0.11752958349832618	0.4756551254715853	-0.019802292419534018	-0.07712062938145153	0.5510466394877871	0.060929212908859665	-0.16953482151778623	0.5415164436659083	0.05162445133082616	-0.1572630335644112	0.5271222454575507	0.04166430448481051	-0.13921830120994508	0.5041180178261142	0.025614737302215085	-0.10717375411792923	0.5241842335485306	-0.02062685985066892	-0.11614677150753736	0.5376643758638162	-0.01021190211435452	-0.12229611444076482	0.5473347280877112	0.01716970252770067	-0.11981789631235323	0.5161886580793341	0.02572970213310044	-0.08895049197073696	0.533882027257005	-0.01766312555998173	-0.10690657424160174	0.5490921078023412	-0.00799023447850944	-0.1072042786761703	0.5597335915564308	0.01216988598779678	-0.09717889363142146	0.5277566218873239	0.01796193638508492	-0.07312382354263774	0.603243647887541	0.015052189437109953	-0.07008520409926772	0.587327019311453	0.011102867148357176	-0.06517971857483523	0.567129399365841	0.007399528508513997	-0.0608032530544344	0.5318871929526355	-0.00022893196879536504	-0.06162600992931	0.46228308100186083	-0.023011742144276925	-0.051989820119430985
4	0.13333333333333353	0.5439209425413868	-0.019351647779073833	-0.13168026331166016	0.5211335386805842	-0.021822579684990684	-0.13330159634376737	0.494601516473002	-0.01813571169440631	-0.11744982035505341	0.4755736552933936	-0.019529432764078036	-0.07712751833111753	0.5509426229765922	0.061115237923121346	-0.1695180708438645	0.5413973569219038	0.05173754657690188	-0.15731369454024893	0.5270603602370358	0.041794332006545476	-0.13921416849490906	0.5040071845825841	0.025580493205095256	-0.1072877121058016	0.5244472086131451	-0.02030127533638204	-0.1160254678097623	0.5377447945856358	-0.009729361052386754	-0.12230311352101958	0.5473257032700342	0.017689835980910007	-0.11989409446122046	0.5161559323726375	0.02578491074521272	-0.08892535106139632	0.5338414174877367	-0.01759410915621007	-0.10703209702517308	0.5490455814305633	-0.007909205939356956	-0.10722196139740106	0.5595828540995491	0.012352475831168053	-0.09729169878609895	0.5276138412198309	0.018137486201648345	-0.07322436190579895	0.6031786904031989	0.015268894626312313	-0.07013193635968434	0.5872551745533723	0.011365866622121135	-0.06521177219790919	0.5670299316182759	0.007738951261559102	-0.06089934223515603	0.531835407289089	-0.00010761348312859909	-0.06171194912024858	0.4622830810018609	-0.023011742144276925	-0.051989820119430985
5	0.1666666666666669	0.5439965271035782	-0.01937815741378912	-0.1314822103415073	0.5212236297845164	-0.021902203349713156	-0.13322127325262326	0.4946764578737426	-0.018175569959980042	-0.11740419807677788	0.47552218330356905	-0.01939888890255037	-0.07713625479114239	0.5508830922957876	0.06120988360073443	-0.16951639578022312	0.5413257780272862	0.05179909663625437	-0.1573469737445523	0.5270160333025098	0.04186375675764831	-0.13922157553076633	0.5039358648214717	0.025557146857295376	-0.10736193977571395	0.5246483739429928	-0.020145707041971717	-0.11597046861621563	0.5378059093096151	-0.009437996606584287	-0.12231272375993063	0.5473292536240769	0.01800396809578464	-0.11993490199576276	0.5161304405808732	0.025815171936306336	-0.08892253220148483	0.5338484901525464	-0.017553296358924664	-0.10709961357256542	0.5490364613804241	-0.007841680863822198	-0.10719988548514672	0.5595080167263391	0.012488905523667326	-0.09734119567471738	0.5275255779819471	0.018246036569651736	-0.07328501376485108	0.6031474385515212	0.015364264210605105	-0.07013554598845884	0.5872202906761429	0.011490836420569916	-0.06520375952600799	0.5669770820181023	0.007917146316538504	-0.060931375967925416	0.5318072887652185	-3.8842011747308725e-05	-0.061750731366763234	0.4622830810018609	-0.023011742144276925	-0.051989820119430985
6	0.20000000000000023	0.5440266465634527	-0.019364840195088773	-0.13142765259082398	0.5212601642706018	-0.021919073737001193	-0.13320618429497794	0.4947100789207981	-0.01821397405856151	-0.1173889404044968	0.4754959960232497	-0.01938429383417084	-0.07714792438813667	0.5508593615193043	0.061227966877006046	-0.16953024615767054	0.5412925555695887	0.051816629848861595	-0.15736871010077536	0.5269858024039955	0.04188272080120414	-0.13924016636743425	0.5038970270760005	0.025542429573929604	-0.10740403232981549	0.5247918152266356	-0.020128272938943148	-0.11597239290898229	0.5378493726812655	-0.00930585733890521	-0.1223265658606019	0.5473429387552222	0.018146628225438	-0.11995111021190125	0.5161111940986635	0.02582428354918742	-0.08893853767369972	0.5338906652021445	-0.017535549060075595	-0.10711972009275622	0.5490549640902799	-0.007786542397202667	-0.10714985841647079	0.5594938592407231	0.012585769650215295	-0.09734280234032425	0.5274827095756187	0.01829865593475577	-0.0733142763468681	0.6031441382666596	0.015361427708486586	-0.07011070760844312	0.5872159978162628	0.011504250301816454	-0.06516939965953855	0.5669626272402712	0.007965475503287855	-0.06091615710392728	0.5317983608214367	-1.3033436214060501e-05	-0.06175354191840382	0.46228308100186083	-0.023011742144276925	-0.051989820119430985
7	0.23333333333333361	0.5440219774433919	-0.01932560406496353	-0.13148347952409728	0.521255118713208	-0.021891238059448814	-0.13324065503217575	0.49471095609106847	-0.018251566600075653	-0.11739829970358792	0.47548920725515503	-0.01945806371324177	-0.07716201338880757	0.5508622768601013	0.06118397752005922	-0.16955895998729248	0.5412882386331935	0.05179734650092094	-0.1573840287702276	0.5269660190405344	0.041861110400890245	-0.13926897781517644	0.5038837458009923	0.025534051450887274	-0.10742134207658119	0.5248820914281035	-0.020217754070096294	-0.11601894739476443	0.5378748700864494	-0.009301137643828672	-0.12234470336041592	0.5473627070351955	0.01815179160635727	-0.11995155154360712	0.5160971489557837	0.025816122302229405	-0.08896976925195649	0.5339553213061574	-0.01753574594140006	-0.10710356128700188	0.5490913987752856	-0.007742955281325958	-0.10708331439785887	0.5595251275195835	0.01264902577407434	-0.09731170285591711	0.5274761741466333	0.018305842836874198	-0.07332033269044946	0.6031619661322987	0.015282278776520553	-0.07007216942270161	0.5872348947084721	0.011431434057715295	-0.06512248349206168	0.5669775440064447	0.007914043633949097	-0.060870457370096887	0.5318039147750726	-2.0539195674795785e-05	-0.06173165015560206	0.4622830810018609	-0.023011742144276925	-0.051989820119430985
7	0.2666666666666655	0.5439899522038517	-0.019270985174625777	-0.1316153267684543	0.5212178738143406	-0.021833491510730885	-0.13330825532553606	0.49468525093779536	-0.018286012469176605	-0.11742570780504161	0.4754953727026882	-0.019591916953392796	-0.07717731421225499	0.5508824428654218	0.061092223948488455	-0.16960134155323417	0.5413032076158697	0.05174825791319593	-0.15739771296313712	0.5269529114531845	0.041808651493878246	-0.13930674678461916	0.5038891337107956	0.025529703922061664	-0.1074211055615899	0.524924173944929	-0.020383532576530694	-0.1160964223790141	0.5378809717766638	-0.009392161251384867	-0.12236628253218432	0.5473835980319972	0.01805309675047051	-0.11994399900975272	0.5160872254779392	0.025794624640360864	-0.08901256302809077	0.5340299450507321	-0.017548849187481563	-0.10706283483506429	0.5491361411164322	-0.007710139576709296	-0.10701151603218376	0.5595865866415901	0.0126843250529457	-0.09726297871649084	0.5274969131714995	0.01827780739434315	-0.07331122208196733	0.6031935921146039	0.015148168937827777	-0.07003477100843791	0.5872690958909881	0.01129721259834282	-0.06507689290430646	0.5670124603680672	0.007792406763850734	-0.060811090241963794	0.531819132617853	-5.1661300319416625e-05	-0.06169637498184416	0.4622830810018609	-0.023011742144276925	-0.051989820119430985
